/* XPM */
static char *_0acc3f11cb249aadebd6f98e43a401c8MkQcUNRvEjDyaVf[] = {
/* columns rows colors chars-per-pixel */
"64 64 2 1 ",
"  c None",
". c red",
/* pixels */
"                                                                ",
"                                                                ",
"                                                                ",
"                                                                ",
"                                                                ",
"                                                                ",
"                         .............                          ",
"                       .................                        ",
"                      .......................                   ",
"                     .........................                  ",
"                    ...........................                 ",
"                   .............................                ",
"                   .............................                ",
"                  ..............................                ",
"                  .............................                 ",
"                 ..............................                 ",
"                 ...........        ..........                  ",
"                 ..........           ......                    ",
"                ...........                                     ",
"                ..........                                      ",
"               ...........                                      ",
"               ...........                                      ",
"              ...........                                       ",
"              ...........                                       ",
"              ..........                                        ",
"              ..........                                        ",
"              ..........                                        ",
"              ..........                                        ",
"              ..........                                        ",
"              ..........                                        ",
"              ..........                                        ",
"              ...........                                       ",
"               ..........                                       ",
"               ...........                                      ",
"               ...........                                      ",
"                ...........                                     ",
"                ...........                                     ",
"                 ...........                                    ",
"                 ............                                   ",
"                  ............                                  ",
"                  ............                                  ",
"                   .............                                ",
"                    ...............       .......               ",
"                     .............................              ",
"                     ..............................             ",
"                      ..............................            ",
"                       .............................            ",
"                        ............................            ",
"                         ..........................             ",
"                          .........................             ",
"                            ......................              ",
"                               .................                ",
"                                 ..........                     ",
"                                                                ",
"                                                                ",
"                                                                ",
"                                                                ",
"                                                                ",
"                                                                ",
"                                                                ",
"                                                                ",
"                                                                ",
"                                                                ",
"                                                                "
};
