/* XPM */
static char *_1f5ec1bd4c94eafed0d0a70db177c5dzKnjKyvvTGL5N3BS[] = {
/* columns rows colors chars-per-pixel */
"64 64 6 1 ",
"  c None",
". c #0C0D14",
"X c #181C28",
"o c #406D6B",
"O c #70D38B",
"+ c #CBFFD8",
/* pixels */
"                                                                ",
"                                                                ",
"                                                                ",
"                                                                ",
"                                                                ",
"                                                                ",
"                                                                ",
"                                                                ",
"                                                                ",
"                                                                ",
"                                                                ",
"                                                                ",
"                                                                ",
"                              +++++++                           ",
"                            ++++++++ +                          ",
"                           ++++++++++ +                         ",
"                           ++++++++++ +                         ",
"                          ++++++OO++++                          ",
"                          +++++OOOO+++                          ",
"                          +++++OOOO+++                          ",
"                          ++++++OO++++                          ",
"                           ++++++++++                           ",
"                           ++++++++++                           ",
"                            ++++++++                            ",
"                              ++++                              ",
"                            X      X                            ",
"                            XX    XX                            ",
"                            XXXXXXXX....                        ",
"                            XXXXXXXXX   .                       ",
"                           XXXXXXXXXXX   .                      ",
"                          XXXXXXXXXXXX   .                      ",
"                        ..XXXXXXXXXXXXX .                       ",
"                       .  XXXXXXXXXXXXX.                        ",
"                      .  XXXXXXXXXXXXXX                         ",
"                      .  XXXXXXXXXXXXXX                         ",
"                      .  XXXXXXXXXXXXXXX                        ",
"                       . XXXXXXXXXXXXXXX                        ",
"                        .XXXXXXXXXXXXXXX                        ",
"                         XXXXXXXXXXXXXXX                        ",
"                         XXXXXXXXXXXXXX                         ",
"                         XXXXXXXXXXXXX                          ",
"                         XXXXXXXX.XXXX                          ",
"                         XXXXXXX...XXX                          ",
"                           XXXX.....XX                          ",
"                           XXXX..... X                          ",
"                            XX.   .                             ",
"                          ooXo.ooo.ooo                          ",
"                       ooooooo.ooo.oooooo                       ",
"                       oooooooooooooooooo                       ",
"                          oooooooooooo                          ",
"                                                                ",
"                                                                ",
"                                                                ",
"                                                                ",
"                                                                ",
"                                                                ",
"                                                                ",
"                                                                ",
"                                                                ",
"                                                                ",
"                                                                ",
"                                                                ",
"                                                                ",
"                                                                "
};
