/* XPM */
static char *_c54a54a81d9470ca8a8c13e6956e4989A08A316P2QDvN11[] = {
/* columns rows colors chars-per-pixel */
"64 64 2 1 ",
"  c None",
". c red",
/* pixels */
"                                                                ",
"                                                                ",
"             .....................                              ",
"           ..................................                   ",
"          .....................................                 ",
"         .......................................                ",
"         ........................................               ",
"         ........................................               ",
"         ........................................               ",
"         ........................................               ",
"          ......................................                ",
"          .........            .................                ",
"          .........                       ....                  ",
"          .........                                             ",
"          ..........                                            ",
"          ..........                                            ",
"          ..........                                            ",
"           .........                                            ",
"           .........                                            ",
"           .........                                            ",
"           .........                                            ",
"           .........                                            ",
"           .........                                            ",
"           .........                                            ",
"           .........                                            ",
"          ...................                                   ",
"          .................................                     ",
"          ..................................                    ",
"          ...................................                   ",
"          ...................................                   ",
"          ...................................                   ",
"          ...................................                   ",
"          ..................................                    ",
"          ..................................                    ",
"          .........        ...............                      ",
"          .........                                             ",
"          .........                                             ",
"          .........                                             ",
"          .........                                             ",
"          .........                                             ",
"          .........                                             ",
"          .........                                             ",
"          .........                                             ",
"          ..........                                            ",
"          ..........                                            ",
"          ..........                                            ",
"           .........                                            ",
"           .........                                            ",
"           .........                                            ",
"           .........                                            ",
"           .........                                            ",
"           .........                      .....                 ",
"           .....................................                ",
"           ......................................               ",
"          .......................................               ",
"          .......................................               ",
"          .......................................               ",
"          ......................................                ",
"          ......................................                ",
"           ...................................                  ",
"            ...............................                     ",
"                                                                ",
"                                                                ",
"                                                                "
};
