/* XPM */
static char *result[] = {
/* columns rows colors chars-per-pixel */
"65 65 167 2 ",
"   c #010101",
".  c #020202",
"X  c #040404",
"o  c gray2",
"O  c #060606",
"+  c #070707",
"@  c gray3",
"#  c #090909",
"$  c gray13",
"%  c #222121",
"&  c #2F2F2F",
"*  c #313131",
"=  c #6A6A6A",
"-  c #6A6B6A",
";  c gray42",
":  c #6C6C6C",
">  c #6D6D6D",
",  c gray43",
"<  c #6F6E6E",
"1  c #6F6F6F",
"2  c gray44",
"3  c #717171",
"4  c #727171",
"5  c #727272",
"6  c #737272",
"7  c #727372",
"8  c gray45",
"9  c #747474",
"0  c #757474",
"q  c gray46",
"w  c #767575",
"e  c #767676",
"r  c #777676",
"t  c #777777",
"y  c #787777",
"u  c gray47",
"i  c #797878",
"p  c #797979",
"a  c gray48",
"s  c #7B7A7A",
"d  c #7B7B7B",
"f  c #7C7B7B",
"g  c #7C7C7C",
"h  c #7D7C7C",
"j  c gray49",
"k  c #7E7D7D",
"l  c #7F7D7D",
"z  c #7E7E7E",
"x  c #7F7E7E",
"c  c gray50",
"v  c #F40606",
"b  c #F40706",
"n  c #F50707",
"m  c #F50807",
"M  c #F50808",
"N  c #F60808",
"B  c #807F7F",
"V  c #808080",
"C  c #818080",
"Z  c #818181",
"A  c #828181",
"S  c #838181",
"D  c gray51",
"F  c #838282",
"G  c #838383",
"H  c #848282",
"J  c #848383",
"K  c #858383",
"L  c #848484",
"P  c #858484",
"I  c gray52",
"U  c #868585",
"Y  c #868686",
"T  c #878686",
"R  c gray53",
"E  c #888787",
"W  c #888888",
"Q  c #898888",
"!  c #898989",
"~  c #8A8989",
"^  c gray54",
"/  c #8B8A8A",
"(  c #8B8B8B",
")  c #8C8B8B",
"_  c #8D8B8B",
"`  c gray55",
"'  c #8D8C8C",
"]  c #8D8D8D",
"[  c #8E8D8D",
"{  c #8E8E8E",
"}  c #8F8E8E",
"|  c gray56",
" . c #908F8F",
".. c #909090",
"X. c #919090",
"o. c gray57",
"O. c #929191",
"+. c #939191",
"@. c #929292",
"#. c #939292",
"$. c #939393",
"%. c #949292",
"&. c #949393",
"*. c gray58",
"=. c #959494",
"-. c #959595",
";. c #969595",
":. c gray59",
">. c #979696",
",. c #979797",
"<. c #989797",
"1. c #999797",
"2. c #989898",
"3. c #999898",
"4. c gray60",
"5. c #9A9999",
"6. c #9A9A9A",
"7. c #9B9A9A",
"8. c #9B9B9B",
"9. c #9C9B9B",
"0. c gray61",
"q. c #9D9C9C",
"w. c #9D9D9D",
"e. c #9E9D9D",
"r. c gray62",
"t. c #9F9F9F",
"y. c #A09F9F",
"u. c #A0A0A0",
"i. c #A5A4A4",
"p. c #A5A5A5",
"a. c #A6A5A5",
"s. c #A7A6A6",
"d. c #B6B5B5",
"f. c #B7B6B6",
"g. c #B9B8B8",
"h. c #BAB9B9",
"j. c gray73",
"k. c #BDBCBC",
"l. c #BEBDBD",
"z. c #BFBEBE",
"x. c gray75",
"c. c #C0BFBF",
"v. c #C0C0C0",
"b. c gray76",
"n. c #C3C2C2",
"m. c #C3C3C3",
"M. c #C4C3C3",
"N. c gray77",
"B. c #C5C4C4",
"V. c #C6C6C6",
"C. c #C7C6C6",
"Z. c gray78",
"A. c #C8C6C6",
"S. c #C8C7C7",
"D. c #C8C8C8",
"F. c #C9C8C8",
"G. c #CAC9C9",
"H. c #CACACA",
"J. c #CBCACA",
"K. c #CCCBCB",
"L. c #CDCCCC",
"P. c #CECDCD",
"I. c #CECECE",
"U. c #CFCECE",
"Y. c #D0CFCF",
"T. c gray82",
"R. c #D5D4D4",
/* pixels */
"= 9 9 = o.o.t Y = =  .= ! -.C 5 3 = e e = q ^ Q 9 x , q ] ; p = = o.3 = w.= = u D V 1 1 W W = d = V V 1 = d W = = = = e ^ a 9 d = ",
"! c 5 = = = u D t z ..j o.$.L k u = e ` 2 = 8 c , = Z Z = j = = z ` 3 = = = = a ( u u = W 4.= = u I V D ..g a = u u = = G I 5 3 3 ",
"! d = = = = d = t ..9 j d = u ! 8 a e 8 ! = = c D 9 L Z d W I = W L 9 = t 3 L a C -.d 2 = Z d d 8 = = 2.,.= r.= = = = = = c a 3 ( ",
"t.= = L L a e D = a 9 j 8 9 = a ( ! = = ! = > 1 1 = = = d W j = = 9 9 :.= 3 = ^ I = 2 2 = Z Z d 8 = = | G = a = = c c = = a a = = ",
"= = 5 R L ` e { R p = p p 9 = = ] c = = G = V 3 Y = = = ] t I 9 e e = @.t 3 = ^ I = = = = = 3 p 8 = ` :.] = = G = g 9 3 = = 2 d = ",
"= = a a ] $.I q = = 3 3 V Z Y = R = = 5 ,.L c q W u ] d u g Y = W G G ] ] g ! ` p z z 2 = = | p u = :.F V 5 = = u z = g = 5 R j @.",
"q R R a s L I Y a W ` = L Y Z = W 8 = g I = q G L I d r.t = = a A -...) P D c j q ] ] = = R 2.g D z C Y ..~ = W u z = u W = L z | ",
"4.4.L = t a 2 Y = = g W Z G h = = d , g = t e ^ W Z D t.d 3 = R I o.G { d = = = = 9 ^ = o.= = g g g e t g y = W > 8.*.W W { :.= = ",
"= = ( q t t = { *.= = = 3 Z z = V , = = = Z u t D g D ` = Y e C Z = c | d , = = ( d = = = = = ( @.= a A 5 c = ..>.V j W W p Z d = ",
"= p G L o.= t p ! g g = u ] k -.h 2 2 c G p , = c D = z a ! p D { ] 9 ; p , t t ( d = ^ d 5 = =.$.= a V j c R = = 2 2 ( ( = = d , ",
"= 9 o.6.L t.u.2...= = j G *.! >.! ( 2 V G C ..W V = = = W I , V = u d 5 = = = : = = = ^ V 9 t Z = = = = 8 = d d c = = = D D = = ` ",
"= c t ] = t.u.I z = = o.= z z = = z Z = = C R ` g = 9 h t Z Z 3 o.= g g = = 2 : 9 = Z V 8 ..c p = Z = 2 6.= t.w.2.G = | -.$.^ = 6.",
"= o.| W 5 u u = 5 5 5 = = , = = a I ! = g = = = = 3 R z j 2 = 3 = = = = = = = u z = G = R = = = = Z = = j ; w.w.*.-.` = = ^ 1 ! c ",
"1 Y Y 8 L R z 5 ] 2 t ( ! d @.] = = W = = 2 2 = = 3 Z = p Y L u = = = z q = = = j Y = = z z 9 9 = ` = : V V = = ] ] z = :.Z = ] 5 ",
"= = = 8 = 9 p G ` a = G P Y ] ] ] ..= 8 = 2 t = = = = = = G 9 j = c = z = c d g Y | = > Y I = ! ^ 2.= = = g g V = = V = :.= = 5 5 ",
"= = = = d 2 = W G = = 9 9 G = 1 | :.V = = = 5 3 Z = ] Y = = = c = c = = = = = = g g = u ! I 2 = = Y = u u = 2 V = D R = = 2 = Z = ",
"= = = G @.*.8 G c p = e e = = = = Y D = = = = = V 9 Y = = t L Z = = = Z a 1 Z G = = = = = = q = R | = j j = ) 2 = D t = = 2 9 r.V ",
"= = p 3 3 g G G = = = = = = ..R = e 3 3 z z = > 2 = 4 c Y a Z Z 1 = = Z t q u I #.2 2 = g g = = 8 = = R R = = = = = = = = Z 3 R 5 ",
"= = g { 9 = L D G t = W = 3 4.g = = = = ! q W 1 o.o.V D p D = 5 1 e e = = 8 a W &.a u 1 I D D = = = = g g = d = ( G d = ^ = 3 8 z ",
"= c = = D u I = D ! 8 8 2 = :...= = = z z $.= = { { V ! = Y D Y Z I g 8 a Y 8 q V Z j R = 5 V = = = : g = e d = c d G u I = 8 8 8 ",
"d ~ ] z u u = = 9 d 8 c t Z t W 2 2 , = ( R x = > g ` V = R V z D e c = z Y g = = 8 8 t.w.3 p = 2 Z D | > u ! L W G u 6.o.L ! G = ",
"Z V L 3 = t G = 5 u p ! t p *.o.! 2 g  .*.| c = = g g = = = = = Y z I z d g = t z d z = = = e W 2 Z B u > > B = = 1 c o.-.( ! 9 = ",
"= V V = = = I | E 5 u a 2 t o.4.6.8.I @.{ Z c = = t = u = = = = R G = c c 5 = c z ^ ( = 9 9 : P 5 = u u = = W = = = q = = = t 8 d ",
"= = = z Y f F c = = = 8 9 u = 8 6.@.` g = = = = = L u u = 5 ..g z d e I z d d = = I Z I 9 9 : c z = ! g g = g = g g $.^ ! ( p u *.",
"t = = = w.8 = D u { ! 8 r r = Z | d t.w.Z = Y -.2.] t = = L a a a ! Y J = = 8 = = ^ ] u = = t t = = = g g = G = U U ` o.6.2.2 1 p ",
"t Z | = = a a e e = = 5 r r = 0 0 = = G } g ] F c = = = L I 5 = = = = = = g I W V ..u u = = z 9 t ; o.2.= = t D L u = 5 = ` = z L ",
"u V = = = a a Y Y = = = ] W = = = = a Z ) ! g e 8 = = { z G g g = g g = = q Z j ` 3 = = = = j = = p = = V Z q d = = y k t = = d R ",
"R V = d D ..5 V V V V = D R L = 3 3 , Z j = 2 e = = = 2 = = D g G ^ g t = = = e { = = I 9 = a @.o.= = = 3 c g = = u = = t > 8 2 = ",
"q = = z Y ] = ! z = 5 = = = g 0 3 3 g 9 d d 2 8 = = = z R u t D = f f L Z G = = L 3 3 $.$.= = @.] = = = = g = Z j ( q = = = = = = ",
"9 9 = = O                       e e 8 9 d d ! 8 z = = c V Y < < d = = Z ` o.= = Z Z = = = = = = = = O                       = ] ] ",
"A = = t o                 @     e e q q = : ! = z = = = = f 8 , I ^ = I I t t = Z L 8 t ! = = z z = O                       = ] | ",
"= = = t t           m q n   z W = a = = u a = I = , G R = = W g ^ { p = = t t z 5 = V G ] L W ! d u = R . N 7 b           z G -.o.",
"8 = L = =           W n -   8 ! a a = = d d = W d = Z Z | ^ W = D G = 9 I z q z = = = a j I I u = = = R . V N {           = g = , ",
"= = = = =           m z M   = u u t = = , 5 f @.:.= E = d = Y = q ..-.= Z ..@.3 z z = = j Z = z j Y P 6   v g m           3 d ~ ` ",
"| 8 = = t                   k.x.z.x.z.z.z.l.l.c.c.l.l.l.z.z.l.h.R q g.h.h.h.h.h.h.h.h.h.h.h.h.h.h.h.h.d.                O e u 9 D ",
"..q d 3 e   % $ *   { P f f ' ' f / 7.B R d Z f f f J f f ! ! h.q c h.:.f f f C =.q.T &.~ [ ( L d d G f ) ;.Y D   $ % $   = = = = ",
"Q q d I @.  $ $ &   N.v.v.j.m.d.d.v.c.B.n.x.C.J.U.U.D.P.P.Y.L.h.= t h.I.z.z.z.F.L.T.B.R.S.G.S.x.z.G.J.N.N.I.H.x.  $ $ $   c = 3 = ",
">.= d 8 (   & & &   m.N.v.g.h.h.g.V.G.K.n.x.z.z.z.A.H.Y.Y.V.Z.h.= t h.x.z.z.n.F.z.j.N.M.F.K.B.x.z.B.G.S.b.m.N.x.  & $ $   c = t 2 ",
"-.V I G d   & $ &       D Y 9 = = +       a u               + h.t = h.W ) X.^ @       D 1               # *.  X   $ $ $   = G o.o.",
"= = z D C   $ $ &   & X G p d q + @ @     k j         #       h.e = h.J Q ,.#         W d .               7.  &   & $ $   = = = q ",
"( { o.a p   $ $ &   X   = = = + @ # !     ' f Z d ~ [ [ a     h.c = h.~ d +   @ d     6.f f f i.w.a t     r       & $ $   : : e W ",
"q ..$.Y I   & $ $   = 8 = z @ # # V f     f f ;.9.e.O.f f     h.> = h...+ # # 0.A     *.f q.3.f f E a     &.Q ^   & $ $   = Z Y e ",
"{ $.$.I =   & $ $   j = = #   # :.H G     4.B f f u R ( a     h.Z Z h..   @ Q  .$.    f E @.' ` f Y a     &.X.i   & & &   = R R = ",
"Z j z ` =   & & &       j @               . s                 h.: z h.                  Q #               /       $ $ &   = > = = ",
"e e u ! p   & $ &   & X a.+                 r               . h.@.= h..                 &.                w.  &   & & &   L e = 4 ",
"= = = ! g   & $ &       / J U U ' f d     f a     = 8 = = ! @.g.G Y h.p.f ' z ! !     I Q     ..O.J h B d R       $ $ &   c = 8 g ",
"9 ^ = = Z   & $ $   ` X.f Q U =.=.f d     Q g     d L = V e @.h.t 9 h.Q G ` ) P =.    ' f     x [ X.=.&.d _ :.[   & & &   8 ^ 8.q ",
"t t.= = z   $ $ $   f Q f Q J &.&.A d     J V   . j d ! W = { h.9 = h.' d a f ,.4.    ' :.    r.) d t L f f f j   & $ $   = = u Z ",
"t w.= s {   $ $ &   F f f f f ..J f f     3.(               # h.Y 9 h.E ) Z T 5.*.# + w ..                L a e   $ $ $   = t u p ",
"p = a I I   & & &   L f f J J ..T f W + # <.#.#             @ h...D h.R ;.Q ' ;.a @ + I :.+               O.f ,.  $ $ $   = ^ ^ 9 ",
"z = { = g   $ $ &   ( A ....W B B f ) B h Q W ..I Y ' a R ' | h.! ! h.d -.d d f f c d f x Q f ;.Q f f R u ] O.j   & $ $   I R ,.@.",
"..= a a g   & $ $   O.&.X.E f =.O.Q f A C ) W f f ) f [ #   @ h.W ! h.q.3.>.f f F F f f x x f =.K f +   @ W ' x   $ $ $   I u z z ",
"D z ( Z o.  & $ $   3.7.3.f f B B B k &.T f f f f ' [  .-.=.W h.p = h.q.X.f J f D F X.=.f X.5.X.O.{ f f f 1.' A   & $ $   = = q | ",
"j = A e Z   & $ &   %.( R J U a c ~ f <.3.2.P #.} T f f     + h.= p h.Q f f J D G F >...7.[ 4.V f G .   @ F [  .  & $ &   = a $.| ",
"^ q 9 = g   & $ &   [ ` G T d Z c ' B d a.o.Z ,.W t L a d a 9 h.= p h.f U Q f d d f X.O.7.7.[ ~ f E T =.Y f [ *.  & $ &   = r.a j ",
"q W ! t o.  & & &   P P B f f #.=.Q B f O.3.' / f ) U h f y.0.h., I h.f f f Q f f B B B f ' ' e.f f B &.&.Q f a   & & &   8 r.3 y ",
"c = G = =   $ $ &   ! f a.B d f f f f c f f f f f O.J h f ' f h.V W g.f f f F f f B E E A T ' ) h T f A A R f }   $ $ &   = = 2 = ",
"z = = = =   & $ $   Z U s.f f V a } } A J j d 7.a. .E ;.~ f d h.^ ^ h.A f 5 z Z u d f &.+.X.,.h h f J J =.z ~ #.  $ $ &   I = = = ",
"W L o.J h   & $ $   f f f C f f f } 3.T J k f [ O.f S #.4.=.^ h.D j h.f &.&.~ } T f f $.L f f f f f f [ =.f ~ ~   $ $ $   I = ^ a ",
"a L o.@.R   $ $ &   Z X.$.G E f X.X.) E f O.~ [ O.f U J ^ q a h.= = g.d &.&.<.F f } #.} B Q <.} x f f C f &.Q a   & & &   = = a ] ",
"8 = u L j   & $ &   g.h.h.h.h.h.h.h.h.h.h.h.h.h.h.h.h.h.h.h.g.g.R | f.g.h.h.h.h.h.h.h.h.g.h.h.g.h.h.h.g.h.g.g.f.  & $ &   ; = d = ",
"j = = 2 $.  & $ &   8 g Z p d e *.G : G 2 @.l ) I ] = = 9 p Z Z W | *.= 5 5 = q p q 2 = = 3 W = g Z R a = 9 9 L   & & &   t = G D ",
"( Z ] = @.          d q z z 5 5 Z o.,.D 2 @.1 w.t.I I o.o.{ L V V = = = = = f = = g u e 8 G j e = = a a = Z D 1           Q r z D ",
"= D D = = = c L C = q D Y u *.= = o.o.; @.= = r.w.: ( I t.c y L &.d r.= r = W ( ( g t.V ] $.= = g 8 = = = L D 1 @.j g Z L D z = = ",
"V = ( = 2 = { { V t = = 9 G o.2 = = Z ; -.= = 2 > = g e t.c = z @.a V = = = = = 5 u r.= R 8.=.e Z e = = = = = = 9 z e Y z a z = t "
};