/* XPM */
static char *c3eee135a6d44a2ea0d5472bead6f3b6Y9qAVtbcQgZ8X54b[] = {
/* columns rows colors chars-per-pixel */
"64 64 6 1 ",
"  c None",
". c black",
"X c red",
"o c #FFE600",
"O c #5065EC",
"+ c #E79ED2",
/* pixels */
"                         .......                                ",
"                    ...................                         ",
"                  ........++++...............                   ",
"                ......++++++++++++++++............              ",
"              .....++++++++++++++++++++++++........             ",
"             ....+++++++++++++++++++++++++++++++...             ",
"            ....+++++++++++++++++++++++++++++++++..             ",
"            ...+++++++++..++++++++++++..+++++++++...            ",
"            ..+++++++++....++++++++++....+++++++++..            ",
"            ..+++++++++....++++++++++....+++++++++..            ",
"            ..++++++++++..++++++++++++..++++++++++..            ",
"            ...+++++++++++++++++++++++++++++++++++..            ",
"             ..+++++++++++++++++++++++++++++++++++..            ",
"             ...+++++++++++++++++...+++++++++++++...            ",
"              ...+++++++...++.......+++++++++++++..             ",
"              ....++++++...........+++++++++++++...             ",
"               ......++++......+++++++++++++.......             ",
"                ........+++++++++++..............               ",
"                    ....+++++++++++...........                  ",
"                      ..+++++++++++..                           ",
"     ......    ..........................                       ",
"  ........... ................................      ....        ",
" ......++........XXXXXXXXXXXXXXXXXXXXXX.......    ........      ",
"....+++++++.....XXXXXXXXXXXXXXXXXXXXXXXXXXXX...............     ",
"..++++++++++...XXXXXXXXXXXXXXXXXXXXXXXXXXXXX.......+++++....    ",
"..++++++++++...XXXXXXXXXXXXXXXXXXXXXXXXXXXXXX..+++++++++++...   ",
"..++++++++++..XXXXXXXXXXXXXXXXXXXXXXXXXXXXXXX..++++++++++++...  ",
"..+++++++++...XXXXXXXXXXXXXXXXXXXXXXXXXXXXXXX..+++++++++++++..  ",
"..+++++++++...XXXXXXXXXXXXXXXXXXXXXXXXXXXXXXX..+++++++++++++..  ",
"..+++++++++..XXXXXXXXXXXXXXXXXXXXXXXXXXXXXXXX.....++++++++++..  ",
"..+++++++++..XXXXXXXXXXXXXXXXXXXXXXXXXXXXXXXX........+++++++..  ",
".++++++++++..XXXXXXXXXXXXXXXXXXXXXXXXXXXXXXXX..  .....++++++..  ",
".+++++++++...XXXXXXXXXXXXXXXXXXXXXXXXXXXXXXXX..    ...++++++..  ",
"..+++++++....XXXXXXXXXXXXXXXXXXXXXXXXXXXXXXXX..     ..++++++..  ",
"..++++++.....XXXXXXXXXXXXXXXXXXXXXXXXXXXXXXXX..     ..++++++..  ",
"..+++++... ..XXXXXXXXXXXXXXXXXXXXXXXXXXXXXXXX..     ..+++++...  ",
"..+++++..  ..XXXXXXXXXXXXXXXXXXXXXXXXXXXXXXXX..     ...++++...  ",
"..+++++..  ..XXXXXXXXXXXXXXXXXXXXXXXXXXXXXXXX..      ..++++..   ",
"..+++++..  ...XXXXXXXXXXXXXXXXXXXXXXXXXXXXXXX..      ..++++..   ",
"..+++++..  ...XXXXXXXXXXXXXXXXXXXXXXXXXXXXXX...      ..++++..   ",
"..+++++..   ...XXXXXXXXXXXXXXXXXXXXXXXXXXXXX...      ..++++..   ",
"..+++++..   .....XXXXXXXXXXXX.........XXXXX...       ..++++..   ",
"..+++++..     ................................       ..++++..   ",
"..++++...       ...............OOOO.........         ..++++..   ",
".+++++...          ...OOOOOOOOOOOOO...              ...++++..   ",
".+++++..            ..OOOOOOOOOOOOO..               ...++++..   ",
".+++++..            ..OOOOOOOOOOOO...               ..++++...   ",
".+++....            ..OOOOOOOOOOOO..                ..++++..    ",
"........            ..OOOOO..OOOOO..                ..++++..    ",
"......              ..OOOOO..OOOOO..                ........    ",
"                    ..OOOOO..OOOOO..                ........    ",
"                    ..OOOOO..OOOOO..                  ...       ",
"                    ..OOOOO..OOOOO..                            ",
"                    ..OOOOO..OOOOO....                          ",
"                    ..OOOOO............                         ",
"           ......................................               ",
"       ........................oooooo...............            ",
"      .......oooooooooooooo..ooooooooooooooooooo.....           ",
"      ...oooooooooooooooooo..ooooooooooooooooooooo...           ",
"     ...ooooooooooooooooooo..oooooooooooooooooooooo..           ",
"     ...ooooooooooooooooooo..oooooooooooooooooooooo..           ",
"     ......oooooooooooooooo..ooooooooooooooooooooo...           ",
"       ......................................oooo...            ",
"         ...........................................            "
};
