/* XPM */
static char *dacb4efbee96413b942cb18eaa37683bPsyZTJDyNbunWiU7[] = {
/* columns rows colors chars-per-pixel */
"64 64 232 2 ",
"   c None",
".  c black",
"X  c #010000",
"o  c #010100",
"O  c #010101",
"+  c #010201",
"@  c #020202",
"#  c #030202",
"$  c #030302",
"%  c #020203",
"&  c #030203",
"*  c gray1",
"=  c #040302",
"-  c #040403",
";  c #050403",
":  c #030304",
">  c #040404",
",  c #050405",
"<  c #050704",
"1  c #050506",
"2  c #060606",
"3  c #080806",
"4  c #080708",
"5  c gray3",
"6  c #090909",
"7  c gray4",
"8  c #0B0A0A",
"9  c #0B0B0B",
"0  c #0E0E0E",
"q  c gray6",
"w  c #120E0C",
"e  c #101010",
"r  c #111011",
"t  c #111111",
"y  c #121112",
"u  c #131213",
"i  c #131313",
"p  c gray8",
"a  c #161616",
"s  c #171617",
"d  c #1E1713",
"f  c #1F1915",
"g  c #181818",
"h  c #191919",
"j  c #1B1A1B",
"k  c #1B1B1B",
"l  c #1E1E1E",
"z  c #211A16",
"x  c #251E19",
"c  c #202020",
"v  c #242425",
"b  c #292829",
"n  c gray16",
"m  c #2C2C2C",
"M  c gray18",
"N  c #3B2F26",
"B  c #313031",
"V  c #393939",
"C  c #45372E",
"Z  c #4D3D31",
"A  c #4F3F35",
"S  c #534237",
"D  c gray27",
"F  c gray28",
"G  c #4A494A",
"H  c #5D4B40",
"J  c #5E4D44",
"K  c #574E49",
"L  c #515151",
"P  c #545455",
"I  c #555455",
"U  c #565556",
"Y  c #5A595A",
"T  c #5A5A5A",
"R  c #5B5B5B",
"E  c #5D5D5D",
"W  c gray37",
"Q  c #685243",
"!  c #6A5444",
"~  c #6D5545",
"^  c #6C5547",
"/  c #6A574C",
"(  c #705847",
")  c #725A49",
"_  c #725A4B",
"`  c #745A49",
"'  c #745C4A",
"]  c #775E4B",
"[  c #755D4D",
"{  c #7C614D",
"}  c #756255",
"|  c #776355",
" . c #7D6350",
".. c #7F6352",
"X. c #7F6655",
"o. c #7E6757",
"O. c #7B6759",
"+. c #7B685D",
"@. c #7E695C",
"#. c #656465",
"$. c #666667",
"%. c #686768",
"&. c #6D6C6D",
"*. c #6F6E6F",
"=. c #74706E",
"-. c #6F6F70",
";. c #706F70",
":. c #727172",
">. c #767676",
",. c #797879",
"<. c #7C7B7C",
"1. c #806654",
"2. c #866A57",
"3. c #876B57",
"4. c #8A6C57",
"5. c #886A58",
"6. c #8E705B",
"7. c #92735D",
"8. c #8A7E77",
"9. c #818081",
"0. c #818182",
"q. c #868686",
"w. c #898889",
"e. c #898989",
"r. c #8A898A",
"t. c gray54",
"y. c #8B8A8B",
"u. c #8D8C8D",
"i. c #8F8E8F",
"p. c #988B85",
"a. c #919090",
"s. c #939393",
"d. c #959495",
"f. c #979697",
"g. c #9B9A9B",
"h. c #9C9B9C",
"j. c gray62",
"k. c #9F9F9F",
"l. c #A69E9A",
"z. c #A6A09D",
"x. c #A0A0A0",
"c. c #A7A6A7",
"v. c #A7A7A7",
"b. c #AAA9AA",
"n. c #ADACAD",
"m. c #AEADAF",
"M. c #AFAEAF",
"N. c #B3A9A4",
"B. c #B1B0B1",
"V. c #B2B1B2",
"C. c #B3B2B3",
"Z. c gray70",
"A. c #B3B3B4",
"S. c #B4B3B4",
"D. c #B4B4B4",
"F. c #BFB7B4",
"G. c #BAB9BA",
"H. c #BCBBBC",
"J. c gray75",
"K. c #C2BCB9",
"L. c #C5BEBC",
"P. c #C1C0C1",
"I. c #C1C1C1",
"U. c #C4C3C4",
"Y. c #C5C4C5",
"T. c #C5C5C5",
"R. c #C6C5C6",
"E. c #C7C6C7",
"W. c #C9C3C0",
"Q. c #CEC9C6",
"!. c #C7C6C8",
"~. c #C8C7C8",
"^. c #CBCACB",
"/. c #CBCBCB",
"(. c #CFCAC8",
"). c #CBCBCC",
"_. c gray80",
"`. c #CECDCE",
"'. c #D0CFD0",
"]. c #D0D0D0",
"[. c #D1D0D1",
"{. c #D3D1D2",
"}. c #D2D2D3",
"|. c gray83",
" X c #D6D5D6",
".X c #D7D6D7",
"XX c #DBD8D7",
"oX c #D8D7D8",
"OX c gray85",
"+X c #DAD9DA",
"@X c #DADADA",
"#X c #DCDBDC",
"$X c #DDDCDD",
"%X c #DFDEDF",
"&X c #DFDFDF",
"*X c #E0DDDD",
"=X c #E0DFE0",
"-X c #E2E1E2",
";X c #E3E2E3",
":X c #E4E3E4",
">X c #E5E4E5",
",X c #E6E5E6",
"<X c #E7E6E7",
"1X c #E8E7E8",
"2X c #EAE8E9",
"3X c #EAE9EA",
"4X c #EBEAEB",
"5X c #ECEAEA",
"6X c #ECEBEC",
"7X c #EEEDEE",
"8X c #EFEEEF",
"9X c #EFEFEF",
"0X c gray94",
"qX c #F1F0F1",
"wX c #F2F1F2",
"eX c gray95",
"rX c #F3F2F3",
"tX c #F4F3F4",
"yX c #F5F3F4",
"uX c #F5F4F5",
"iX c #F6F5F6",
"pX c #F7F6F6",
"aX c #F7F6F7",
"sX c #F8F7F8",
"dX c #F9F8F9",
"fX c #F9F9F9",
"gX c #FAF9FA",
"hX c #FBFAFB",
"jX c #FCFBFC",
"kX c #FDFCFD",
"lX c #FEFDFE",
"zX c #FFFEFF",
/* pixels */
"                                                  . . . . . . .             . . . . .                                           ",
"                                                . . . C ^ ! N . . . . . . . x H x ; .                                           ",
"                                              . . z S [ 5.7.4.{ ' _ ! ( ' )  .6.' Z . .                                         ",
"                                              . . f A J / ' ..2.2.+.+.o.X.} | 1.2.Q w . .                                       ",
"                                                . . . =.z.8.p.N.W.Q.L.F.F.Q.K.l.K d ; .                                         ",
"                                                . . s./.3XXX*X3XiXgXyXwXwXgXyX:XI . . .                                         ",
"                                              . . k.9XsXzXzXzXzXzXzXzXzXzXzXzXzXM.R . .                                         ",
"                                            . . r.[.gXzXzXzXzXzXzXzXzXzXzXzXzXzXwXM.. . .                                       ",
"                                          . . #.G.1XgXzXzXgX4XoX@X:XjXzXzXzXzXzXgX'.#.n .                                       ",
"                                        . . r.Y.3XgXzXzX,Xx.<.&.b.@XgXzXzXzXzXzXsX=XM.I . .                                     ",
"                                      > . J.$X1XiXzXzXzX X%.b q g.3XzXzXzXzXzXzXsX1X!.i.L . .                                   ",
"                                      . . ,XjXzXzXzXzXzXsX:Xh.I A.6XjXzXzXzXzXzXzXzXkXzX,XF .                                   ",
"                                    . . _.iXzXzXzXzXjXgXsXiXiXiXiXiXyXsXgXjXzXzXzXzXzXzX3X&.. .                                 ",
"                                    . q.[.tXjXgX$X[._.Y.H.S.Z.Z.Z.Z.Z.G.P.^.]. X9XkXzXzXzXiXk..                                 ",
"                                    . :.D._.@XY.V 6 j j j g p t 0 t s j k k t > w.$X-X0XzXzXc.9                                 ",
"                                    . %.-.g 6 6 9 W ,XiXwX XB.i.w.h.~.=X9XwXf.6 6 6 5 >.3X:Xs.6 >                               ",
"                                    . . U.P.Y.'.6X8X:X~.r.l : . . : = > l s.[.yX1X XZ.Y > > > . >                               ",
"                                      . . -.0.,.B p t q 9 . . . . . . . . 9 t s h.9XiX:X_.Y.0.6 >                               ",
"                                        . . t t > .   . . . : . .     : .   > . p G B.=X,XR p .                                 ",
"                                                  > . . .   : .       . . >         v M M 0 >                                   ",
"                                                . . . .     > .       . . .                                                     ",
"                                                . . .       . .       . . . .                                                   ",
"                                              . . .       > . .           . . .                                                 ",
"                                            . . . .       . .               . .                                                 ",
"                                            . . .         . >                 . .                                               ",
"                                          . . .           . >                 . .                                               ",
"                                          . .             . >                 . .                                               ",
"                                        . . .       . . . . .                 . .                                               ",
"                                      . . .     . . . v.Z.Z.Z.. .             . .                                               ",
"                                      . . 6   . . D.v.Z.zXzXZ.Z.Z..           . .                                               ",
"                                      . .   . n b.Z.zXzXzXzXzX$X#XZ.F .       . .                                               ",
"                                      . .   . S.Z.zXzXzXzXzXzXzXzX#X#XF .     . .                                               ",
"                                    . . .   . v.zXzXzXzXzXzXzXzXzXzX#XZ.Z..   . .                                               ",
"                                    . . 3   . v.zXzXzXzXzXzXzXzXzXzXzXzXZ.F   . .                                               ",
"                                    . . <   . v.Z.zXzXzXzXzXzXzXzXzXzXzX$XY . . .                                               ",
"                                    . .     . n v.Z.zXzXzXzXzXzXzXzXzXzXzXZ.. . .                                               ",
"                                    . .       . n Z.$XzXzXzXzXzXzXzXzXzXzXZ.. . .                                               ",
"                                  . . .         . Y Z.#XzXzXzXzXzXzXzXzXzXZ.. . .                                               ",
"                                                  . Z.v.zXzXzXzXzXzXzXzXY.Z..                                                   ",
"                                                    . Z.Z.zXzXzXzXzXzXZ.Z.. .                                                   ",
"                                                      . . Z.D.D.Z.Z.Z.Y . .                                                     ",
"                                                        . . . . . . . .                                                         ",
"                                                        + . .   . .                                                             ",
"                                                      + . .     . .                                                             ",
"                                                      . . .     . .                                                             ",
"                                                    ; . .       . . .                                                           ",
"                                                    . . .         > .                                                           ",
"                                                    . .             . .                                                         ",
"                                                    . .             . .                                                         ",
"                                                    . .             . .                                                         ",
"                                                    . .             . .                                                         ",
"                                                    . .             . .                                                         ",
"                                                    . .             . .                                                         ",
"                                                    . .             . .                                                         ",
"                                                  . . .             . .                                                         ",
"                                                . . .               . .                                                         ",
"                                                . . .               . .                                                         ",
"                                                . . .               . .                                                         ",
"                                              . . .                 . .                                                         ",
"                                              . . .                 . .                                                         ",
"                                            . . . .                 . .                                                         ",
"                                            . . ;                   . .                                                         ",
"                                        . . . .                     . . . .                                                     ",
"                                        . . . .                     . . . .                                                     "
};
