/* XPM */
static char *bd61cf6fd091491b86200eb42a61c2586TNo0OWuyP2076ey[] = {
/* columns rows colors chars-per-pixel */
"64 64 107 2 ",
"   c None",
".  c black",
"X  c #010000",
"o  c #000100",
"O  c #010100",
"+  c #010101",
"@  c #020201",
"#  c #020202",
"$  c #030202",
"%  c #020203",
"&  c #040302",
"*  c #040303",
"=  c #030402",
"-  c #040403",
";  c #040404",
":  c #040504",
">  c #050504",
",  c #040604",
"<  c #060606",
"1  c #060607",
"2  c #070707",
"3  c #080906",
"4  c #070709",
"5  c #0A0A0B",
"6  c #0C0C0C",
"7  c #4B3C33",
"8  c #5D4F49",
"9  c #655043",
"0  c #695548",
"q  c #6F5748",
"w  c #745C4B",
"e  c #775E4C",
"r  c #775E4E",
"t  c #6C5E55",
"y  c #7A6251",
"u  c #7F6655",
"i  c #7A675B",
"p  c #766860",
"a  c #737374",
"s  c #806451",
"d  c #836755",
"f  c #866957",
"g  c #876A56",
"h  c #896B57",
"j  c #8A6D58",
"k  c #93735B",
"l  c #90715D",
"z  c #94755E",
"x  c #9B7962",
"c  c #8A817C",
"v  c #838283",
"b  c #8D8C8D",
"n  c #949394",
"m  c #969596",
"M  c #9F9EA0",
"N  c #A7A6A8",
"B  c #A9A8A9",
"V  c #AAA9AA",
"C  c #ADACAD",
"Z  c gray68",
"A  c #AEADAE",
"S  c #B2B1B2",
"D  c #B2B2B3",
"F  c #B5B4B5",
"G  c #B9B7B8",
"H  c #BBB9BA",
"J  c #BEBDBE",
"K  c #C2BEBD",
"L  c #C2C1C2",
"P  c #C3C2C3",
"I  c #C6C5C6",
"U  c #C8C8C9",
"Y  c #CDCCCD",
"T  c #D0CFD0",
"R  c #D1D0D1",
"E  c #D2D0D1",
"W  c #D3D2D3",
"Q  c #D7D6D7",
"!  c #D8D7D8",
"~  c #D8D8D9",
"^  c #D9D8D9",
"/  c gray87",
"(  c #E0DEDF",
")  c #E1E0E1",
"_  c #E3E2E3",
"`  c #E5E4E5",
"'  c #E6E5E6",
"]  c #E8E7E8",
"[  c #EAE9EA",
"{  c #ECEBEC",
"}  c #EEEDEE",
"|  c #F0EFF0",
" . c #F3F2F3",
".. c #F3F3F3",
"X. c #F6F5F6",
"o. c #F7F6F7",
"O. c #F8F7F8",
"+. c #F8F8F8",
"@. c #FAF9FA",
"#. c gray98",
"$. c #FBFAFB",
"%. c #FCFBFC",
"&. c gray99",
"*. c #FDFCFD",
"=. c #FDFDFD",
"-. c #FEFDFE",
";. c #FFFEFF",
/* pixels */
"                                                                                                                                ",
"                                                                                                                                ",
"                                                          + +           +                                                       ",
"                                                        + r w + + + + + 0 *                                                     ",
"                                                      + 9 f x k j s h h z e +                                                   ",
"                                                      * 7 8 q f p i u t y l + +                                                 ",
"                                                        2 Y c K @./ E @.G + +                                                   ",
"                                                      5 / -.-.-.-.-.-.-.-.+ +                                                   ",
"                                                    + C -.-.-.-.-.-.-.-.-.E +                                                   ",
"                                                    + P @.-.-.-.-.-.-.-.-.-.+ +                                                 ",
"                                                  2 V @.-.-. .Z F -.-.-.-.X.N +                                                 ",
"                                                + P ~ @.-.-.+ + ' -.-.-.-.X.m + +                                               ",
"                                                6 X.-.-.-.-.W + ~ -.-.-.-.-.-.-.+                                               ",
"                                                S -.-.-.-.-.-.-.-.-.-.-.-.-.-.-.+ +                                             ",
"                                              + U -.-.-.X.` Q Q ~ ! ' X.-.-.-.-.} +                                             ",
"                                              = V { -.+ + + + + + + + + +  .-.-.-.+                                             ",
"                                              2 m + + + { -.! n b Q @.X.+ + + X.{ +                                             ",
"                                              + I P Y @._ S + + + + + H X.' C + + +                                             ",
"                                                2 a v + + + + + + + + + + { -._ E +                                             ",
"                                                  + + +   +   +     +   + + J -.+ +                                             ",
"                                                        + +   +     + 4     + + +                                               ",
"                                                      + +     +     + 2                                                         ",
"                                                      +     4 +     + +                                                         ",
"                                                    + +     + +       + +                                                       ",
"                                                    +       +           +                                                       ",
"                                                  + +       +           +                                                       ",
"                                                  +         +           +                                                       ",
"                                                  +         +           +                                                       ",
"                                                + +         +           +                                                       ",
"                                                +           +           +                                                       ",
"                                                +           +           +                                                       ",
"                                                +           +           +                                                       ",
"                                              + +           + -         +                                                       ",
"                                              + 3           + +         +                                                       ",
"                                              + =             +         +                                                       ",
"                                              + 2             +         +                                                       ",
"                                              +               +         +                                                       ",
"                                              +               +         +                                                       ",
"                                                              +                                                                 ",
"                                                            2 +                                                                 ",
"                                                            + + +                                                               ",
"                                                            +   +                                                               ",
"                                                          +     +                                                               ",
"                                                          +     +                                                               ",
"                                                        - +     +                                                               ",
"                                                        +         +                                                             ",
"                                                        +         +                                                             ",
"                                                        +         +                                                             ",
"                                                        +         +                                                             ",
"                                                        +         +                                                             ",
"                                                        +         +                                                             ",
"                                                        +         +                                                             ",
"                                                        +         +                                                             ",
"                                                      + +         +                                                             ",
"                                                      + =         +                                                             ",
"                                                      +           +                                                             ",
"                                                      +           +                                                             ",
"                                                      +           +                                                             ",
"                                                    + +           +                                                             ",
"                                                    +             +                                                             ",
"                                                    +             +                                                             ",
"                                                  + +             + +                                                           ",
"                                                                                                                                ",
"                                                                                                                                "
};
