/* XPM */
static char *_36d09733d55489ee19cded47efb99779z3MfqNSdR8WyE5v[] = {
/* columns rows colors chars-per-pixel */
"64 64 256 2 ",
"   c #190000",
".  c #240100",
"X  c #290700",
"o  c #380700",
"O  c #2D1300",
"+  c #371701",
"@  c #362808",
"#  c #4B0400",
"$  c #461803",
"%  c #591801",
"&  c #6D1A04",
"*  c #492705",
"=  c #4C2B02",
"-  c #582805",
";  c #573506",
":  c #4F3410",
">  c #583716",
",  c #672A04",
"<  c #782C07",
"1  c #693608",
"2  c #773808",
"3  c #682C13",
"4  c #7D2D15",
"5  c #693A16",
"6  c #793714",
"7  c #743B1B",
"8  c #7C3B1B",
"9  c #513125",
"0  c #623F21",
"q  c #793D24",
"w  c #544515",
"e  c #79420C",
"r  c #684418",
"t  c #784719",
"y  c #735119",
"u  c #594326",
"i  c #694825",
"p  c #784828",
"a  c #6D522F",
"s  c #7A5328",
"d  c #7B5A36",
"f  c #716B34",
"g  c #796538",
"h  c #7A6341",
"j  c #8D1500",
"k  c #872809",
"l  c #962C09",
"z  c #87360B",
"x  c #99380B",
"c  c #8A2C16",
"v  c #982D17",
"b  c #833616",
"n  c #8C3314",
"m  c #8B3B14",
"M  c #8C351B",
"N  c #833B1B",
"B  c #8C3B1C",
"V  c #943414",
"C  c #9B3415",
"Z  c #933B13",
"A  c #9B3B14",
"S  c #93331A",
"D  c #9C341C",
"F  c #933B1B",
"G  c #9B3C1C",
"H  c #A7310E",
"J  c #A23514",
"K  c #A23B14",
"L  c #A3341A",
"P  c #A33B1B",
"I  c #AB3B19",
"U  c #B73719",
"Y  c #863A22",
"T  c #8C3B22",
"R  c #943C23",
"E  c #9C3B23",
"W  c #993825",
"Q  c #943533",
"!  c #A33C22",
"~  c #A73926",
"^  c #AB3C22",
"/  c #B7392A",
"(  c #C43E19",
")  c #89440A",
"_  c #9A480C",
"`  c #8C4315",
"'  c #874719",
"]  c #8B421C",
"[  c #974615",
"{  c #93431C",
"}  c #9C431C",
"|  c #944B1C",
" . c #9C4B1C",
".. c #88541A",
"X. c #98541B",
"o. c #B0480B",
"O. c #A34314",
"+. c #A74A17",
"@. c #A3431B",
"#. c #AC451C",
"$. c #AB4C1D",
"%. c #B74817",
"&. c #B44C1C",
"*. c #BB4C1C",
"=. c #A6551A",
"-. c #AB531D",
";. c #BA5517",
":. c #B3531D",
">. c #BC531D",
",. c #B9621C",
"<. c #884727",
"1. c #934324",
"2. c #9B4524",
"3. c #964927",
"4. c #9C4A22",
"5. c #94452A",
"6. c #934C2C",
"7. c #9C4B2B",
"8. c #875727",
"9. c #9B5423",
"0. c #975729",
"q. c #8B4835",
"w. c #974B34",
"e. c #8A5635",
"r. c #985836",
"t. c #A44423",
"y. c #AA4424",
"u. c #A44C22",
"i. c #AB4C23",
"p. c #A4492A",
"a. c #AB4D2B",
"s. c #B84726",
"d. c #B34C23",
"f. c #B34A2B",
"g. c #A45323",
"h. c #AC5322",
"j. c #A85B24",
"k. c #A3532B",
"l. c #AB542B",
"z. c #A35C2C",
"x. c #AB5B2C",
"c. c #B35422",
"v. c #BC5423",
"b. c #BB5B25",
"n. c #B4542A",
"m. c #BB542A",
"M. c #B65B28",
"N. c #A94A35",
"B. c #B64934",
"V. c #A75934",
"C. c #B65935",
"Z. c #9A6329",
"A. c #886637",
"S. c #986738",
"D. c #926F38",
"F. c #A9642B",
"G. c #B66429",
"H. c #BC632C",
"J. c #A76637",
"K. c #AC6C3B",
"L. c #B36334",
"P. c #B96836",
"I. c #B3643B",
"U. c #A6743B",
"Y. c #B7723A",
"T. c #C14A0D",
"R. c #C4491A",
"E. c #C34C1C",
"W. c #C4541C",
"Q. c #C7591C",
"!. c #D3591D",
"~. c #C44B26",
"^. c #D64E2F",
"/. c #C45B24",
"(. c #C85927",
"). c #D45B24",
"_. c #D25F24",
"`. c #C65C35",
"'. c #CD6325",
"]. c #C4642D",
"[. c #CC632C",
"{. c #C9682A",
"}. c #D3642B",
"|. c #D86729",
" X c #D9732D",
".X c #C86835",
"XX c #D66935",
"oX c #C97338",
"OX c #D87439",
"+X c #E3672A",
"@X c #E46E38",
"#X c #965C43",
"$X c #B15C41",
"%X c #896846",
"&X c #986745",
"*X c #997747",
"=X c #957B52",
"-X c #A76A45",
";X c #B86843",
":X c #AA7748",
">X c #A47C4B",
",X c #B77747",
"<X c #A96C52",
"1X c #AA7A54",
"2X c #B77B54",
"3X c #AE7964",
"4X c #C96847",
"5X c #C77749",
"6X c #CF784C",
"7X c #CC6C55",
"8X c #E17947",
"9X c #BA823F",
"0X c #D4843F",
"qX c #998754",
"wX c #948B51",
"eX c #A9824B",
"rX c #B7854C",
"tX c #A98657",
"yX c #B78856",
"uX c #AD945B",
"iX c #B8935B",
"pX c #9E8A69",
"aX c #AB8E66",
"sX c #B78966",
"dX c #B99766",
"fX c #B89875",
"gX c #B3A168",
"hX c #BBA477",
"jX c #C7864C",
"kX c #C58857",
"lX c #D68E59",
"zX c #C6965A",
"xX c #D1A35F",
"cX c #C78B66",
"vX c #C59767",
"bX c #D69968",
"nX c #C98B75",
"mX c #C99976",
"MX c #D49A78",
"NX c #CAA469",
"BX c #D7A66C",
"VX c #CAA678",
"CX c #D7A878",
"ZX c #D1B37C",
"AX c #E7AB76",
"SX c #DA9A83",
"DX c #C9AA83",
"FX c #D4AD8B",
"GX c #DAB888",
"HX c #E5B985",
"JX c #EFB38E",
"KX c #D7CD97",
"LX c #F3C996",
"PX c #F9CAA8",
"IX c #F8D1AF",
"UX c #E9E2B5",
/* pixels */
"%X* -X,X4X4X`.m.v f.W c 4 b B 1.Y M q , o 6.bX;Xl.i.a.y.a.t.2.` [ | ' 0.5 p r . sXFX#Xw.0.l.+.@.#.C m.4XC.l.2.z C.! S c b 4 8 <.",
"%XX 2X,XP.C.s.J l ~ W 2.7.8 6 6 w.T w.7 . cXbX0.V.l.P #.@.i.} Z  . .[ 0.1 s 7 . sXFX3 8 1.l.O.l s.#.I x u.4.z } N.E S R R N 6 8 ",
"d   nXkX4XC.s.J l ^ S c c 4 m 2 4 5.r.7 o PX:Xr.I.n.@.#.K a.4.4. .[ 9.<.8 q p X <XFXe.6.{ G O.K ].$.m.n.h.l.{ { 7.M b R 5.5.6.r.",
"@ O nXSX4X`.n.A G k W D S k F m F p.w.7 o FXnXr.J.n.&.#.@.} 4.7.N.1.N 4 8 q q.$ &XJXw.6.1.1.F Z _ :.-.+.i.{ z 7.' 5.w.<.q Y 5.N.",
"@   SX7X`.$Xf.l.z n E ~ v D F k S t.$Xq.X DXSXr.I.n.+.#.O.@.M 4 R M Y b 8 6 q o <XJXq.6.1.B n } z o.H.G.P. .] 0.4 Y <.Y 4 4 Q Q ",
"@   SXnX4X4Xy.i.p.M R ~ W v M F a.2.#Xr.X fXmX' C.#.H x K t.7.3.T c 4 4 4 8 #Xo #XJXY w.6.7.m } x =.H.:.M.@.N.V.< q Y <.T M M S ",
"@   FX2X7X4XL k.3.N T 5.N.R 5.7.p.b q.7 . SXnX7 ' [ i.n.n.@.] 8 5.1.N 8 3 7 #Xo e.JX<.0.6.V.3.` _ G.5X6X5X;XI.V.< Y 6.V.V.2.M n ",
"u O IXnX$X^ 2 0.8.s 5 5 3 p 7 7 1 , <.: O DXfX*X<.' [ [ m 6 6 1 1 1 2 5 5 1 e.X >XGXp r 5 ..e e ..L.Y.,XK.J.0.6.8 <.6.r.r.3.1.1.",
"f @ DX:X| e 1 t $ +   * * i : d s t e.y u KXfXuX&XJ.K.,X2X-X8.t <.t s r ; = > O fXhXA.D.Z.D.8.U...Y.D.f 8...<.r.S.e.8.8.8.0.Z.J.",
"UXhXPXHXAXAXAXHXZXVXhXDXFXDX3X1XMXmXsXFXDXLXDXVXHXAXcXkXkXyXyXtX>X>XyX>XtXuXNXVXZXuXuXZXKXAXBXHXBXKXZXwXLXKXVXbXiXrX*XU.U.9XrXyX",
"pX*XCXJXLXJXAXcXVXDXhXu %X=XaXe.S.r.r.SXtXe.e.J.,X;XV.x.V.J.-X,X,X:XkX:XtX-X-XvXmX-XyXCXHXJXHXJXAXZXwXw KXZXmXyXVXNXNXvXNXBXBXBX",
"J.-X4X6X8X4XC.2.<.<Xq.o #X<Xw.Y M R F T R 1.F F W E k v v t.V D u.k.l.7.2.m b M 4.k.2.k.l.M.6X6X,XdXw f KXhXbXAXzXzXzXiXzXjXjXiX",
"p.N.C.4X4X`.s.! T Q 3 o #Xq.Y W D D D ~ ~ L L v ~ L v / v ^ L L L P ^ ! P v v v D t.P ! @.J s.y.E 6.a f KXVX;XP.L.J.J.F.F.G.F.F.",
"v W B.m.n.s.^ ~ R 4 % o 3XQ c ~ D D ~ L L L H L ^ L / / v L L H l J L P L v v D v P ! s.I J J l ~ M a a LXyXa.B.d.$.-.$.;.&.:.:.",
"k S ! y.@.P L E w.q 5 o nXw.Q W S W D P J J J L Q v / B.v v P C v L ! ! L L v D v L ^ y.y.P J I / N.* *XGXK.~.^.*.*.*.v.~.~./.v.",
"c M { 1.m Z F R q.q >   fXe.T c T R F } A K v v ~ Q N.N.S n } k A ! ! ! W c v S c v D D D A A y./ W + wXVXV./ ^.( U U R.( ( R.v.",
"S R ] ] m m { 5.q.p : X hXe.b c N T R G [ x x C W M Q Q R m } z V F E D v v c c S S E S V V V ! / W * h uXJ.s.^.U U %.%.( ( s.%.",
"~ W M n m F G R 6.q : X FX<XM S T T F A K K J C W c Q c W S V x V D D ! W v v D ~ ~ y.L C P A ^ / Q @ f wXU.s.^.R.*.&.:.R.U &.d.",
"N.E Y 6 b ] T T p p :   DX1XR m M M F G K A A C R c c k W V V Z n C ^ t.W ~ E p.D v ~ D S ! F y.E w.  wXA.e.B.~.m.c.c.h.s.&.h.i.",
"w.q.Y 7 <.7 e.p r : = X fX1XY N , 1.m k G  .m 6 8 < 4 n n < < ` { ` & { m b m F v v ! S B 4.M 1.<.e.  g &Xr.<XC.N.u.2.@.h.[  .X.",
"r.w.q.$ $ - 3 > * a u a 1X&X7 -X-X:XcX6.,XJ.yX2XD.S.V.J.C.x.r.K.K.F.4.z.0.U.r.K.7X4X7X4X<X;XB 6 &X%Xo &XsXbX2X<.kX2XJ.,XbXrXxXjX",
"SXsXnXMXMXsXsXmXsXsXs &X%X&Xw.cX2XyX:X-XvXGXCXdXyXrX,X5X2X,XrXrXK.L.P.I.J.rXU.:X6X6X7X;X,X5X,X7XeX=Xw g =XqX=XA.dX>XiXzXCXBXiXrX",
"mXDX2XJX<X% p <X&XsX1XcX3XV.w.V.r.1X:XyXVXGXZXzXrX2XY.5XoX;XY.,XJ.I.;XI.J.rXkXyXJXlX5Xl.` ] 4.V.y r r r s g >XZX5 A.A.eXzXU.xX9X",
"= 1Xe.MXw.% N T 8 <.<.<.N 4 5.R 7.F ' 1 VXNX:X` @.@.P K x A _ Z { g.n m 6 ..dXyX6X4.F m e 3. .i.J.k.9.' ] 6 2 0.] | I.9.X. .F.oX",
"i 3X5 MX5.V.W 5.7.7.R 1.2.p.N.t.! C.e.5 qX*XS.k.f.~.s.U I o.O.O.} p.k F 6 e NXvXK.n ` [ z | } i.f.d.n.A @.4.z z <  .Z O.i.K 8X4X",
"; tX5 PX#X$XR N.c R 7.p.S c n a.B.7X1 = D.qX..z.i.s.s.H H O.O.x V V V F 6 1 iXuX,X` 4.4.2 z @.m.H v.m.$.} 4.m | 4.4.h.} d.m.(.E.",
"a FX+ JX5.w.N.N.v & S D C.p.n ! B.;Xt O wXwXA.;XI U U H l x x l f.D ~ E 6 1 eXvX;Xz m 4.[  .i.d.l *.d.n.[ z < ` 9.z.g.[ n.d.8X(.",
"w GXo PX5.N.$Xv L c G a.t.G a.y.$XV.y = wXuX8. .y.U U U I $.$.K ! ^ D D 1.S.>XyXK.<  .z | z f.`.x $.n.-.[ < ) < 0.| ] m g.c.G m.",
"f pX* IXq.$X$X~ S S 2.V k u.G G 4X$X<.= qXD.<.;Xs.U U U L / s.P W / D p.8 :Xt &XJ.b 7.4.{ { f.4X#.&.$.i.g.Z m , z.z m 4.l.K l &.",
"=XhX$ PXSXT 7.R N.7.7.p.2.;Xm a./ `.7., yXS.6 l.B./ U U L U ^ L B.N.W 2.6 yX- >X6.b T { 2 < m n.s.J k y.a.F n n m F a.A l s.s.s.",
"a fX@ PX#Xq.w.w.3.w.] 3.] J.B C.$X$Xk.- 1X2Xr.<.`.B.B.f./ B.N.p.R c Q R <XsXr tX<.Y N 4 3 - 3 M 2.G l C.N.} c p.p.c G A l #.(.XX",
"pXfXO IXPX3 6 q - r.5 t 1 ' <.0.w.e.e.; =XtXD.5 -Xr.w.5.b 4 8 3 8 q r.Y 2XtXa *Xr.<.<.5 s 5 7 6 w.$X5.<.4 N 6 w.;XB 1.n z x.C.l.",
"h : > fX# p #XsX; t = e.e.' 8...y r A.s *X=X%Xw > ; 3 7 q p p i s &X#X<.%XqXh %Xq.<.e.p pX3XfX3Xs 0 - - - 3 % w.e.-X2X<.3.5XrXF.",
"h i 9 a * : i &X=XA.s aXdXtX:X:X8.A.:Xt A.D.*XA.g d e.e.q q 5 * * 5 p s A.=Xf %Xd e.p u f u u : d a d %XaX&Xe.3X&X<X:XK.:XyX:X,X",
"3X%X* * > : $ 0 q.A.D.s r A.,XS.1 s S., ' ' y r d s 8.q.Y 7 , * > $ 1 1 r > * p - q 3 > u u u u a h h > e.=X&X-X<X2XV.6 J.bX:X..",
"q.q * : : + 9 : , 0.Y.r.X * zX..) Z.` 9.F.9.F.F.X.X.0.z.z.0.8.<.t ; - ' < 1.7.<.4 Y q 5 > 9 > > q p - - e.1XJ. .c.i.#.&.+.=.) z ",
"Q 4 - : ; @ 9 9 9.=.P.J.+ o ,X_ =.G.j.F.].G.G.]._ +.=.=.=.z.X.X.0.' ] k.} y.n.y.k 1.5.<.7 q p p #Xq.3 % 8.S.x.-.>.R.R.R.&.$.O.[ ",
"Q Q 1 - ; > 9 p I.$.G.V.$   K.=.G.{.{.{..X{.,.{._ o.-.:.M.M.M.j.x.{ g.n.d.d.~.y.J y.u.1.8 8 Y Y Q #Xq % 3.g.j.:.*.R.~.~.~.*.:.-.",
"Q M 4 2 t p q #Xl.+.M.7.+ . ,X-./.>.{.].'.}.;.Q.o.o.;.;.v.v.c.c.$.x &.m.~.%.~.%.I &.y.A V M S M Y Y Y % z.x.M.;.%.R.!.!.W.>.b.].",
"Q R N 1.<.Y Q 5.i.+.j.1.o X 7XM.v.*.'./.(.).T.W.R.W.>.W.v.>.v.:.>.+.`.).XXR.(.s.*.*.I K I f.a.! q.N 6 # F.F.=.+.o.T.W.W.*.;.b.].",
"Q #XM M z k T w.h.O.=.0.o   <Xn.v.;.).XX).}./.Q.Q.(.Q.>.v.v.m.*.[.(.XXXX}.;.*.>.~.*.%.J I d.s.! I.5.m # g.G.+.+.%.;.*.R.;.W./.].",
"Q Q R F Z C R r.X._ X.r.O   <XN.m.b..XOXXX.XXX/.,.>.v.b.m.b.M.M.[.XX}.XX].;.o.>.>.].~.#.J P y.t.;Xl.G # l.b.&./.E.R.R.R.E.(.).`.",
"- % #XC.C.C.Y w.[ X.X.8.X   1Xr.x.G.P.jXoXoX8XH.-.-.:.M.x.L.L.I..XXX.XOXG.,.,.G.-.P.oXm.t.u.C.;Xl.N.9.% C.oXc..X/.v.*.&.(.`..X`.",
": X 5.1.g.5Xr.S.y Z.Z.;     sXr.2 | L.5XjXoXY.Y.) [ X.| ' ' 9.F.4.H.Y.F.X.Z.Z.X.X.L.x.k.l.5.J.0.:Xr.6 , -XbXF.z [ ` [ 9.l.z.g.4.",
"i 8.0.2XP.) >X5 eX..e e a a tX8.t t ' e e 2 2 2 2 2 2 1 - , t 6.| < , 2 1 = - e % , % % < 6 r ; * = = = s 8.1 2 r e e 6 e 6 2 2 ",
"dXdXMXMXkXzXZXwXzXeXU...pXhXvXU.zXkXrXrXrXkXlXxXbXBXBXvXyX:X>X:X,XY.K.U.U.U.eXrXU.5XcX2XcXVX%Xd uXgXtX*XiXdXtXvXeXtXeX>X=X:X1XeX",
"vXvX,X-XF.eXdXf tX:XJ.` *X>XrXU.rX,XK.K.,XjXjXjXY.Y.Y.:X:X,XkXbXL.5XkXU.U.eXrXrXJ.,X5XJ.S.vXg wXs D.D.S.-X,X-X:XeXeXtXtX1X,XyXcX",
"F.F.0.` e Z.f w *X' x _ 0.0.Y.G.z.=. .X.j.G.G.F.Y.Y.L.F.0.F.J.;XL.L.P.F.....X.=.} l.C.7.S.mXy tX0.I.L.l.i.P G } 2.9.7.4.{ P y.B.",
"=.X.x.` ) iXwXwXtX] %.}.C.Y.0X{.G.c.:.:.b.].{.{.].]..X.XP.P.H.P.m.i.h.M.j.| _ _ K m.m.$XK.cX* D.Z.g.A $.f.I f.`.n.C.x.a.t.t.^ / ",
"=.H.z | ..U.hXuXsXp.^.^.(.8X XQ.(.[.[.(.Q.W.Q._.OX}.;.&.o.%.v.(.*.~..X].].].b.*.~.^.( `.x.rX+ tXJ.=._ L..Xc.i.} J.0.0.0.k.u.@.O.",
"{.+.i.} Z.BXuXiXJXl.XX@X X Xo.|.Q.).|.|.).!.!.!.!.Q.W.*.;.%.*.%.).XX+X}./.>.'.XX~.@X~.XXa.J.O uXe X.) =.=.[ C.x.9.0.9.0.z.l.+.@.",
"b.c.=.X.Z.xXrXrXBX.XXX[.@X X'.Q.!.|.).|.H +X+X!.'.Q.;.Q.W.%.W.}.!.!.!.+X).Q.{.OX/.@X|.}.} J.O D.....2 |  .g.g. .I.x.x.g.Z } l s.",
">.G.j.[ U.zXBX9XBXF.oXOXOX{.}.|.W.|.!.|.).!.T. XQ.Q.{.{.'.;.Q.).o.+X+X!.Q.'.;.,. X{.'.OXn.0.X tXy ) 2 ) } } a.t.y.C.t.#.J f.J H ",
"m.$.M.Y.oXHXxX9XAX=.j.8XXXOX8XXX{.[.|.@X).!.(.@X'.'.{. XXX/.(.(.T.}.(.|.XX-.) G.oXoXoXOXx.S.+ %X8.=.@.K y.C s.^ ^ L L I j H ~./ ",
"u. .9.3.Z.rXAXrXJX0X=.j._ P.F._ G._ :.:.%././.{.:.:.-.:.-.+.+.M.+.Y.M.+. .=.X.F.F.H..Xh.< , = fX' { { { A l t.y.k l k f.! l v L ",
":XyXCXiX; ZXeXNXAXBX:XU.S.rXiXiXrXyXU...P.P.X.F.Y.F.U.Y.J.z.x.L.` 9.| 2 2 ..Z.Z.Z.) O.L.-Xs * g uX1X8.eXvXMXbXyX;X2X6 6.2X;Xr.;X",
"5 p D.>X8.eXU.*XD.U.s 8.y r w r D.A.D...9XrXZ.Y...X.Z.J.Z...' ' S.8.:X-XsX>XyXU.,X5XoXL.m 5 5 %XtXiX*X*X8.s 8.8.Z.8.8.rX:XyXeXD.",
"cXJ.J.2XS.:X<.;X;XjX5XkXzX>XuXuXiXuXBXU.J.G.=.=.=.=.F.P.L. .} 1.2 8.1Xs dXsXtXe 2 =.[ z % , - o A...1 ..U.:XY.Z.0.e F.yX0.:XzXiX",
"z 4.{ m k.z x.+.u.C.P.m , ; eXuXD.iXBX) =.H.=.].G.G.M.H.n.+.+.k.e.<.A.; aX*X1X0.2 _ x h.x V.6.' ' | 9.| X.) F.M.=.i.-.L.Y.Z.2 rX",
"@.V F +.c.n.n.v.#..X`.x.2 1 U.uX8.CXU.j.oX.XXXOXQ./.].].].m.m.n.0.1 sX* sXZX:X9.h.$./.v.#.G 7.F x O.i.c.-.>.v.'.(.(.).(.].o.x 6X",
"@.x A #.:.&.&.&.(..X.Xx.X.e yXD.8.LXjX) oXOX'. X'.'.'.{.]./.m.n.V.t e.i tXLXyX| H.>./.(.#.C P C I d.v.m.>.>.Q.Q.).).).).XXo._ jX",
"@.} O.-.M.-.$.%./.n..Xg.0.- iXwX8.LXzXe oXOX{. X X X'.{.XXoXH.$.9.< A.s eXLXzXg.c.%.;.*.I K P ^ l A $.M.G.G.G.Q.@X!.!.'.OX-._ jX",
"@.K O.&.b.>.:.&./.v.5XoXK.2 NXdXA.KXyXX.X.{. X|. X'.,.Q.[.].c.} 3.% dX= uXGX5X4.c.>.W.:.o.C C v C [  .j.=.=.o.o.|.!.R.W. X=.) 9X",
"H H H #.~.>.*.;.%.*.]..Xx.| zXyXD.AXlX-.+.|.+X+X+X+X|.}.[./.v.c.] 6 mX+ hXGXyX| $.b.b.:.$.@.P C v V  .@.=.=.=.I ).).!.*.{.;.) Y."
};
